<svg id="svg" xmlns="http://www.w3.org/2000/svg" xmlns:xlink="http://www.w3.org/1999/xlink" width="400" height="265.97402597402595" viewBox="0, 0, 400,265.97402597402595"><g id="svgg"><path id="path0" d="M184.935 17.986 C 145.895 24.869,118.679 42.841,99.282 74.545 C 79.715 106.529,78.156 150.728,95.382 185.122 C 111.538 217.379,140.401 239.594,176.272 247.380 L 184.156 249.091 199.481 249.091 L 214.805 249.091 222.689 247.380 C 257.466 239.832,284.674 219.540,302.010 188.222 C 303.619 185.315,304.935 182.809,304.935 182.653 C 304.935 182.496,305.495 181.134,306.180 179.626 C 319.927 149.329,318.186 107.629,301.966 78.701 C 284.520 47.585,258.194 27.753,223.896 19.887 L 215.844 18.040 201.039 17.899 C 192.896 17.821,185.649 17.860,184.935 17.986 M213.780 33.481 C 230.108 36.166,243.832 41.509,256.240 50.010 C 319.203 93.146,313.445 187.445,245.675 223.046 C 225.670 233.555,225.111 233.160,224.815 208.312 C 224.570 187.704,224.303 185.989,220.524 180.720 L 218.805 178.323 225.117 177.139 C 251.913 172.111,264.459 156.704,264.402 128.894 C 264.381 118.332,262.187 111.168,256.703 103.744 L 254.641 100.953 255.365 97.879 C 256.832 91.641,256.103 81.835,253.730 75.906 L 252.874 73.766 249.797 73.766 C 244.982 73.766,234.746 77.789,227.765 82.424 L 225.071 84.213 220.977 83.168 C 206.956 79.590,192.001 79.591,177.972 83.171 L 173.866 84.219 171.219 82.397 C 164.884 78.037,153.970 73.766,149.164 73.766 L 146.087 73.766 145.231 75.906 C 142.863 81.823,142.083 92.372,143.584 98.160 L 144.311 100.962 142.326 103.598 C 136.899 110.805,134.580 118.357,134.559 128.894 C 134.502 156.730,147.015 172.106,173.817 177.134 L 180.101 178.313 178.402 180.837 C 176.514 183.644,174.545 188.487,174.545 190.327 C 174.545 191.263,174.121 191.647,172.597 192.090 C 159.932 195.773,152.741 193.469,145.663 183.460 C 140.781 176.558,135.929 173.175,130.165 172.655 C 124.646 172.157,123.137 174.779,127.093 177.991 C 134.001 183.600,136.480 186.940,140.728 196.364 C 144.875 205.564,159.577 210.929,172.597 207.993 L 174.026 207.671 174.026 217.106 C 174.026 231.228,171.890 232.151,156.364 224.740 C 100.892 198.263,81.569 128.463,115.600 77.486 C 132.851 51.644,159.650 35.969,192.468 32.525 C 196.265 32.127,209.023 32.699,213.780 33.481 " stroke="none" fill="#000000" fill-rule="evenodd"></path></g></svg>