<svg id="svg" version="1.1" xmlns="http://www.w3.org/2000/svg" xmlns:xlink="http://www.w3.org/1999/xlink" width="400" height="400" viewBox="0, 0, 400,400"><g id="svgg"><path id="path0" d="M109.570 72.485 C 89.345 74.811,77.364 97.328,86.566 115.720 C 93.918 130.414,111.857 136.486,126.376 129.194 C 139.691 122.508,146.120 106.868,141.384 92.682 C 136.899 79.249,123.687 70.861,109.570 72.485 M263.477 148.956 C 245.396 150.689,230.084 159.533,220.624 173.707 L 219.336 175.637 219.336 164.674 L 219.336 153.711 195.117 153.711 L 170.898 153.711 170.898 235.156 L 170.898 316.602 195.113 316.602 L 219.327 316.602 219.385 270.654 L 219.444 224.707 219.884 222.010 C 222.840 203.927,233.164 194.521,250.041 194.533 C 266.379 194.545,275.646 204.723,277.335 224.512 C 277.464 226.024,277.536 242.783,277.537 271.729 L 277.539 316.602 302.642 316.602 L 327.745 316.602 327.683 261.377 C 327.616 200.705,327.701 205.160,326.458 197.490 C 321.433 166.488,300.109 148.640,268.359 148.861 C 266.050 148.877,263.853 148.920,263.477 148.956 M88.281 235.156 L 88.281 316.602 113.477 316.602 L 138.672 316.602 138.672 235.156 L 138.672 153.711 113.477 153.711 L 88.281 153.711 88.281 235.156 " stroke="none" fill="#fbfbfb" fill-rule="evenodd"></path><path id="path1" d="M188.477 0.210 C 74.776 7.223,-9.572 105.485,0.796 218.848 C 8.515 303.248,69.743 374.194,152.246 394.338 C 225.578 412.243,302.680 387.588,351.640 330.576 C 425.592 244.463,413.491 114.594,324.902 43.627 C 293.622 18.569,256.258 3.846,215.369 0.466 C 210.971 0.102,192.995 -0.069,188.477 0.210 M118.164 72.591 C 134.639 75.233,145.879 91.781,142.462 108.365 C 137.674 131.601,109.136 140.408,92.360 123.828 C 71.480 103.192,89.228 67.952,118.164 72.591 M273.828 148.836 C 302.666 150.868,321.509 168.011,326.457 196.715 C 327.940 205.323,327.958 206.164,327.890 265.430 L 327.832 316.699 302.693 316.749 L 277.554 316.798 277.482 271.046 C 277.419 230.671,277.374 225.017,277.101 222.949 C 274.504 203.291,266.271 194.810,249.805 194.830 C 234.252 194.850,224.408 202.679,220.836 217.871 C 219.342 224.229,219.337 224.386,219.337 273.584 L 219.336 316.797 195.117 316.797 L 170.898 316.797 170.898 235.254 L 170.898 153.711 195.117 153.711 L 219.336 153.711 219.336 164.556 L 219.336 175.400 220.626 173.491 C 230.416 159.004,245.980 150.242,264.551 148.761 C 266.405 148.613,271.214 148.652,273.828 148.836 M138.672 235.254 L 138.672 316.797 113.379 316.797 L 88.086 316.797 88.086 235.254 L 88.086 153.711 113.379 153.711 L 138.672 153.711 138.672 235.254 " stroke="none" fill="#047cbc" fill-rule="evenodd"></path><path id="path2" d="M228.700 202.490 L 228.027 203.223 228.760 202.550 C 229.441 201.923,229.582 201.758,229.433 201.758 C 229.400 201.758,229.071 202.087,228.700 202.490 M100.830 316.748 C 107.786 316.776,119.167 316.776,126.123 316.748 C 133.079 316.720,127.388 316.696,113.477 316.696 C 99.565 316.696,93.875 316.720,100.830 316.748 M182.959 316.748 C 189.646 316.777,200.588 316.777,207.275 316.748 C 213.962 316.720,208.491 316.696,195.117 316.696 C 181.743 316.696,176.272 316.720,182.959 316.748 M290.103 316.748 C 297.067 316.776,308.405 316.776,315.298 316.748 C 322.192 316.720,316.494 316.696,302.637 316.696 C 288.779 316.696,283.139 316.720,290.103 316.748 " stroke="none" fill="#54acd3" fill-rule="evenodd"></path><path id="path3" d="M112.747 72.210 C 113.044 72.255,113.483 72.254,113.723 72.208 C 113.964 72.161,113.721 72.125,113.184 72.126 C 112.646 72.128,112.450 72.166,112.747 72.210 M92.083 80.908 L 91.113 81.934 92.139 80.964 C 92.703 80.431,93.164 79.970,93.164 79.939 C 93.164 79.793,92.983 79.955,92.083 80.908 M134.082 80.859 C 134.502 81.289,134.889 81.641,134.943 81.641 C 134.996 81.641,134.697 81.289,134.277 80.859 C 133.858 80.430,133.471 80.078,133.417 80.078 C 133.363 80.078,133.662 80.430,134.082 80.859 M143.029 102.246 C 143.030 102.891,143.067 103.131,143.110 102.780 C 143.154 102.429,143.153 101.901,143.108 101.608 C 143.064 101.314,143.028 101.602,143.029 102.246 M83.248 103.320 C 83.248 103.696,83.289 103.850,83.338 103.662 C 83.387 103.474,83.387 103.167,83.338 102.979 C 83.289 102.791,83.248 102.944,83.248 103.320 M227.240 165.479 L 226.074 166.699 227.295 165.533 C 228.429 164.451,228.605 164.258,228.461 164.258 C 228.430 164.258,227.881 164.807,227.240 165.479 M249.268 194.674 C 249.670 194.716,250.330 194.716,250.732 194.674 C 251.135 194.631,250.806 194.597,250.000 194.597 C 249.194 194.597,248.865 194.631,249.268 194.674 M327.831 263.965 C 327.831 292.969,327.853 304.863,327.881 290.397 C 327.908 275.930,327.908 252.200,327.881 237.662 C 327.853 223.125,327.831 234.961,327.831 263.965 " stroke="none" fill="#339bcc" fill-rule="evenodd"></path><path id="path4" d="M92.090 123.633 C 92.619 124.170,93.096 124.609,93.149 124.609 C 93.203 124.609,92.814 124.170,92.285 123.633 C 91.756 123.096,91.279 122.656,91.226 122.656 C 91.172 122.656,91.561 123.096,92.090 123.633 M134.073 123.682 L 133.301 124.512 134.131 123.740 C 134.587 123.315,134.961 122.941,134.961 122.910 C 134.961 122.762,134.791 122.910,134.073 123.682 M112.359 132.370 C 112.873 132.411,113.664 132.410,114.117 132.369 C 114.571 132.328,114.150 132.295,113.184 132.296 C 112.217 132.296,111.846 132.330,112.359 132.370 M267.725 148.776 C 268.181 148.817,268.928 148.817,269.385 148.776 C 269.841 148.735,269.468 148.701,268.555 148.701 C 267.642 148.701,267.268 148.735,267.725 148.776 M88.183 235.156 C 88.183 280.005,88.205 298.352,88.232 275.928 C 88.260 253.503,88.260 216.809,88.232 194.385 C 88.205 171.960,88.183 190.308,88.183 235.156 M308.984 162.756 C 308.984 162.790,309.270 163.076,309.619 163.391 L 310.254 163.965 309.680 163.330 C 309.146 162.738,308.984 162.606,308.984 162.756 M311.133 164.905 C 311.133 164.938,311.418 165.224,311.768 165.540 L 312.402 166.113 311.829 165.479 C 311.294 164.887,311.133 164.754,311.133 164.905 M327.588 208.301 C 327.590 208.730,327.630 208.883,327.677 208.640 C 327.724 208.397,327.722 208.046,327.673 207.859 C 327.624 207.672,327.586 207.871,327.588 208.301 " stroke="none" fill="#88c4e1" fill-rule="evenodd"></path></g></svg>